<svg width="180" height="32" viewBox="0 0 180 32" fill="none" xmlns="http://www.w3.org/2000/svg">
<g clip-path="url(#clip0_503_2960)">
<path d="M135.549 1.25125C135.638 1.17075 135.721 1.09027 135.818 1.01709L135.961 0.914642L136.133 0.790244L136.305 0.687797L136.47 0.592665L136.642 0.51217L136.829 0.424362L136.994 0.36582L137.196 0.299964C137.25 0.281941 137.305 0.267267 137.361 0.256049L137.578 0.204831H137.758H137.968H138.26H114.338C113.796 0.181972 113.256 0.266392 112.749 0.453014C112.242 0.639635 111.779 0.924591 111.388 1.29072C110.996 1.65685 110.685 2.09657 110.472 2.5834C110.26 3.07022 110.15 3.59408 110.15 4.12342C110.15 4.65276 110.26 5.17662 110.472 5.66344C110.685 6.15027 110.996 6.58999 111.388 6.95612C111.779 7.32225 112.242 7.6072 112.749 7.79383C113.256 7.98045 113.796 8.06487 114.338 8.04201H128.673L135.526 1.34638L135.549 1.25125Z" fill="#FF9482"/>
<path d="M142.349 4.43446V4.60277C142.349 4.66863 142.349 4.74181 142.349 4.81498C142.338 4.87916 142.323 4.94267 142.304 5.00524L142.259 5.18818L142.192 5.37112L142.125 5.54675C142.1 5.60424 142.073 5.66041 142.042 5.71505C142.042 5.77359 141.99 5.83213 141.96 5.89799L141.862 6.05167C141.825 6.11021 141.795 6.16875 141.758 6.21997L141.63 6.38827C141.63 6.43218 141.563 6.4834 141.518 6.53462L141.278 6.79806L134.433 13.4864V28.0558C134.409 28.5846 134.496 29.1126 134.687 29.608C134.878 30.1033 135.169 30.5558 135.544 30.9381C135.919 31.3204 136.369 31.6246 136.867 31.8324C137.365 32.0403 137.902 32.1474 138.443 32.1474C138.985 32.1474 139.521 32.0403 140.02 31.8324C140.518 31.6246 140.968 31.3204 141.343 30.9381C141.717 30.5558 142.009 30.1033 142.2 29.608C142.391 29.1126 142.478 28.5846 142.454 28.0558V4.04663C142.427 4.17779 142.392 4.30728 142.349 4.43446Z" fill="#45D755"/>
<path d="M128.673 7.96887L114.51 21.8065C113.951 22.3554 113.571 23.0537 113.418 23.8132C113.264 24.5728 113.344 25.3598 113.648 26.075C113.951 26.7901 114.465 27.4016 115.123 27.8322C115.782 28.2628 116.556 28.4934 117.349 28.4948C117.875 28.4963 118.396 28.3954 118.882 28.1982C119.368 28.001 119.809 27.7113 120.18 27.346L134.35 13.5083V7.96887H128.673Z" fill="#FFE259"/>
<path d="M117.356 28.4949C119.573 28.4949 121.371 26.7388 121.371 24.5726C121.371 22.4064 119.573 20.6504 117.356 20.6504C115.139 20.6504 113.342 22.4064 113.342 24.5726C113.342 26.7388 115.139 28.4949 117.356 28.4949Z" fill="#FFCF00"/>
<path d="M141.218 6.81274C140.845 7.18355 140.399 7.47804 139.908 7.67904C139.417 7.88005 138.89 7.98357 138.357 7.98357H134.35V13.523L141.166 6.81274H141.218Z" fill="#0080FF"/>
<path d="M138.357 32C140.574 32 142.372 30.244 142.372 28.0778C142.372 25.9116 140.574 24.1555 138.357 24.1555C136.14 24.1555 134.343 25.9116 134.343 28.0778C134.343 30.244 136.14 32 138.357 32Z" fill="#00BC00"/>
<path d="M134.35 4.04668C134.349 3.52613 134.454 3.01055 134.66 2.53041C134.865 2.05027 135.168 1.61534 135.549 1.25134V1.25134L128.696 7.94698H134.373L134.35 4.04668Z" fill="#0080FF"/>
<path d="M114.345 7.96889C116.562 7.96889 118.36 6.21284 118.36 4.04664C118.36 1.88044 116.562 0.12439 114.345 0.12439C112.128 0.12439 110.331 1.88044 110.331 4.04664C110.331 6.21284 112.128 7.96889 114.345 7.96889Z" fill="#FF4723"/>
<path d="M138.26 0.131714H137.968H137.758H137.578L137.361 0.182943C137.305 0.194161 137.25 0.208824 137.196 0.226847L136.994 0.292703L136.829 0.351245L136.642 0.439053L136.47 0.519547L136.305 0.61468L136.133 0.717127L135.961 0.841525L135.818 0.943972L135.549 1.17814C135.168 1.54213 134.865 1.97706 134.66 2.4572C134.454 2.93733 134.349 3.45292 134.35 3.97347V7.89572H138.357C138.89 7.89573 139.417 7.79222 139.908 7.59121C140.399 7.3902 140.845 7.09572 141.218 6.72491L141.458 6.46147C141.503 6.41025 141.533 6.35903 141.57 6.31512L141.698 6.14681C141.698 6.09559 141.765 6.03705 141.803 5.97851L141.9 5.82483C141.931 5.76524 141.958 5.70418 141.982 5.64189C142.013 5.58725 142.04 5.53108 142.065 5.47359L142.132 5.29796L142.2 5.11502L142.244 4.93208C142.263 4.86951 142.278 4.806 142.289 4.74182C142.289 4.66865 142.289 4.59548 142.289 4.52962V4.3613C142.297 4.23213 142.297 4.10264 142.289 3.97347C142.297 3.8443 142.297 3.71481 142.289 3.58564V3.41733C142.289 3.35148 142.289 3.2783 142.289 3.20513C142.289 3.13195 142.289 3.08072 142.244 3.01486L142.2 2.83925L142.132 2.65631L142.065 2.47337C142.04 2.41588 142.013 2.35969 141.982 2.30505C141.958 2.24517 141.93 2.18655 141.9 2.12944C141.9 2.07089 141.833 2.01967 141.803 1.96845C141.773 1.91722 141.735 1.85136 141.698 1.80013L141.57 1.63183C141.57 1.58792 141.503 1.5367 141.458 1.49279C141.384 1.40003 141.304 1.31203 141.218 1.22936L141.166 1.17814L140.904 0.943972L140.762 0.841525L140.589 0.717127L140.417 0.61468L140.252 0.519547L140.072 0.439053L139.893 0.351245L139.728 0.292703C139.66 0.266382 139.59 0.244387 139.518 0.226847C139.467 0.208854 139.414 0.194189 139.361 0.182943L139.144 0.131714H138.964H138.754H138.462H138.26Z" fill="#0080FF"/>
<path d="M101.658 8.16654H77.9078C76.8809 8.16654 75.8959 7.76794 75.1698 7.05845C74.4436 6.34896 74.0356 5.38668 74.0356 4.38331C74.0356 3.37994 74.4436 2.41767 75.1698 1.70818C75.8959 0.998692 76.8809 0.600098 77.9078 0.600098H101.658C102.685 0.600098 103.67 0.998692 104.396 1.70818C105.122 2.41767 105.53 3.37994 105.53 4.38331C105.53 5.38668 105.122 6.34896 104.396 7.05845C103.67 7.76794 102.685 8.16654 101.658 8.16654V8.16654Z" fill="#0080FF"/>
<path d="M101.658 19.7722H77.9078C76.9094 19.7293 75.9663 19.3116 75.2753 18.6061C74.5843 17.9007 74.1986 16.9618 74.1986 15.9854C74.1986 15.0089 74.5843 14.0701 75.2753 13.3646C75.9663 12.6591 76.9094 12.2414 77.9078 12.1985H101.658C102.656 12.2414 103.599 12.6591 104.29 13.3646C104.981 14.0701 105.367 15.0089 105.367 15.9854C105.367 16.9618 104.981 17.9007 104.29 18.6061C103.599 19.3116 102.656 19.7293 101.658 19.7722V19.7722Z" fill="#0080FF"/>
<path d="M101.658 31.3706H77.9078C76.8809 31.3706 75.8959 30.972 75.1698 30.2626C74.4436 29.5531 74.0356 28.5908 74.0356 27.5874C74.0356 26.584 74.4436 25.6218 75.1698 24.9123C75.8959 24.2028 76.8809 23.8042 77.9078 23.8042H101.658C102.685 23.8042 103.67 24.2028 104.396 24.9123C105.122 25.6218 105.53 26.584 105.53 27.5874C105.53 28.5908 105.122 29.5531 104.396 30.2626C103.67 30.972 102.685 31.3706 101.658 31.3706Z" fill="#0080FF"/>
<path d="M52.9821 31.9707C49.7448 31.9722 46.5797 31.0355 43.8874 29.2792C41.195 27.5228 39.0963 25.0257 37.8568 22.1038C36.6172 19.1819 36.2925 15.9665 36.9237 12.8642C37.5549 9.76195 39.1137 6.9123 41.4028 4.67576C43.6919 2.43921 46.6086 0.916255 49.7838 0.299549C52.959 -0.317158 56.2501 0.000103582 59.2407 1.21118C62.2313 2.42226 64.7871 4.47275 66.5847 7.10325C68.3824 9.73375 69.3411 12.8261 69.3396 15.989C69.3337 20.2259 67.6084 24.2875 64.5421 27.2834C61.4757 30.2793 57.3186 31.9649 52.9821 31.9707V31.9707ZM52.9821 7.56643C51.2768 7.56499 49.6093 8.05773 48.1907 8.98234C46.7721 9.90694 45.666 11.2219 45.0123 12.7608C44.3587 14.2997 44.1869 15.9934 44.5187 17.6277C44.8505 19.262 45.6709 20.7635 46.8763 21.9421C48.0816 23.1208 49.6176 23.9237 51.2901 24.2492C52.9625 24.5748 54.6962 24.4085 56.2719 23.7712C57.8475 23.1339 59.1943 22.0544 60.1419 20.6691C61.0895 19.2839 61.5953 17.6552 61.5953 15.989C61.5972 14.882 61.376 13.7854 60.9442 12.7619C60.5124 11.7384 59.8785 10.808 59.0787 10.0239C58.2789 9.23974 57.3289 8.61718 56.2828 8.19176C55.2368 7.76635 54.1152 7.5464 52.9821 7.54448V7.56643Z" fill="#0080FF"/>
<path d="M163.635 31.9707C160.398 31.9722 157.233 31.0355 154.54 29.2792C151.848 27.5228 149.749 25.0257 148.51 22.1038C147.27 19.1819 146.945 15.9665 147.577 12.8642C148.208 9.76195 149.767 6.9123 152.056 4.67576C154.345 2.43921 157.261 0.916255 160.437 0.299549C163.612 -0.317158 166.903 0.000103582 169.894 1.21118C172.884 2.42226 175.44 4.47275 177.238 7.10325C179.035 9.73375 179.994 12.8261 179.992 15.989C179.987 20.2259 178.261 24.2875 175.195 27.2834C172.129 30.2793 167.971 31.9649 163.635 31.9707V31.9707ZM163.635 7.54448C161.93 7.54303 160.262 8.03578 158.844 8.96038C157.425 9.88499 156.319 11.1999 155.665 12.7388C155.012 14.2777 154.84 15.9715 155.172 17.6058C155.503 19.2401 156.324 20.7415 157.529 21.9202C158.734 23.0988 160.27 23.9017 161.943 24.2273C163.615 24.5529 165.349 24.3865 166.925 23.7492C168.5 23.112 169.847 22.0324 170.795 20.6472C171.742 19.2619 172.248 17.6332 172.248 15.9671C172.246 13.7351 171.338 11.595 169.724 10.0161C168.109 8.43721 165.919 7.54835 163.635 7.54448V7.54448Z" fill="#0080FF"/>
<path d="M3.84219 31.6195C3.1855 31.6217 2.53977 31.4552 1.96977 31.1366C1.52588 30.8976 1.13476 30.5752 0.818952 30.1879C0.503139 29.8006 0.268871 29.3561 0.129638 28.88C-0.00959552 28.4039 -0.0510319 27.9055 0.00769691 27.4137C0.0664257 26.9219 0.224155 26.4462 0.471826 26.0142L13.8409 2.65633C14.0868 2.2239 14.4175 1.84301 14.8141 1.53543C15.2106 1.22785 15.6653 0.999595 16.1521 0.863694C16.6389 0.727793 17.1484 0.686903 17.6514 0.743372C18.1544 0.79984 18.6411 0.952566 19.0837 1.19281C19.5263 1.43305 19.9162 1.7561 20.231 2.14354C20.5458 2.53098 20.7794 2.97522 20.9185 3.45087C21.0576 3.92652 21.0995 4.42428 21.0417 4.91574C20.9839 5.40719 20.8276 5.88272 20.5817 6.31515L7.20508 29.6877C6.87211 30.2737 6.38461 30.7619 5.79324 31.1016C5.20188 31.4413 4.5282 31.6201 3.84219 31.6195Z" fill="#0080FF"/>
<path d="M30.5954 31.6195C29.9103 31.6201 29.2374 31.4421 28.6463 31.1037C28.0551 30.7654 27.5671 30.2791 27.2325 29.695L13.8409 6.32247C13.595 5.89003 13.4387 5.41451 13.3809 4.92305C13.3231 4.4316 13.365 3.93384 13.5041 3.45819C13.6432 2.98253 13.8768 2.53831 14.1916 2.15087C14.5064 1.76343 14.8962 1.44036 15.3388 1.20012C15.7814 0.959881 16.2682 0.807167 16.7712 0.750698C17.2742 0.694229 17.7836 0.735109 18.2705 0.87101C18.7573 1.00691 19.212 1.23518 19.6085 1.54276C20.0051 1.85034 20.3357 2.23121 20.5816 2.66365L33.9508 26.0362C34.1994 26.468 34.358 26.9436 34.4172 27.4357C34.4765 27.9277 34.4353 28.4264 34.296 28.9028C34.1567 29.3792 33.922 29.8238 33.6056 30.211C33.2893 30.5982 32.8974 30.9203 32.4528 31.1585C31.8851 31.467 31.245 31.6259 30.5954 31.6195V31.6195Z" fill="#0080FF"/>
</g>
<defs>
<clipPath id="clip0_503_2960">
<rect width="180" height="32" fill="white"/>
</clipPath>
</defs>
</svg>
